<?xml version="1.0" encoding="UTF-8"?>
<svg id="_レイヤー_1" data-name="レイヤー 1" xmlns="http://www.w3.org/2000/svg" viewBox="0 0 465.99 361.59">
  <defs>
    <style>
      .cls-1 {
        fill: none;
      }

      .cls-1, .cls-2 {
        stroke: #000;
        stroke-miterlimit: 10;
        stroke-width: 8px;
      }

      .cls-3 {
        font-size: 84.04px;
      }

      .cls-3, .cls-4 {
        font-family: FuturaStd-Heavy, 'Futura Std';
        font-weight: 800;
      }

      .cls-4 {
        font-size: 57.82px;
      }
    </style>
  </defs>
  <path d="M.01,6.35C.01,2.84,2.86,0,6.36,0h49.19c57.65,0,96.26,43.1,96.26,99.96s-39.67,99.43-96.52,99.43H6.36c-3.51,0-6.35-2.84-6.35-6.35V6.35ZM38.89,159.2c0,3.51,2.84,6.35,6.35,6.35h0c47.86,0,66.38-26.44,66.38-65.85,0-43.37-22.21-65.85-66.38-65.85h0c-3.51,0-6.35,2.84-6.35,6.35v119Z"/>
  <path d="M157.11,6.35c0-3.51,2.84-6.35,6.35-6.35h49.19c57.65,0,96.26,43.1,96.26,99.96s-39.67,99.43-96.52,99.43h-48.92c-3.51,0-6.35-2.84-6.35-6.35V6.35ZM195.98,159.2c0,3.51,2.84,6.35,6.35,6.35h0c47.86,0,66.38-26.44,66.38-65.85,0-43.37-22.21-65.85-66.38-65.85h0c-3.51,0-6.35,2.84-6.35,6.35v119Z"/>
  <path d="M314.2,6.35c0-3.51,2.84-6.35,6.35-6.35h49.19c57.65,0,96.26,43.1,96.26,99.96s-39.67,99.43-96.52,99.43h-48.92c-3.51,0-6.35-2.84-6.35-6.35V6.35ZM353.07,159.2c0,3.51,2.84,6.35,6.35,6.35h0c47.86,0,66.38-26.44,66.38-65.85,0-43.37-22.21-65.85-66.38-65.85h0c-3.51,0-6.35,2.84-6.35,6.35v119Z"/>
  <g>
    <path d="M64.27,92.04h-6.07c-1.48,0-2.66-1.26-2.56-2.74l3.03-45.98c.09-1.35,1.21-2.4,2.56-2.4h0c1.35,0,2.47,1.05,2.56,2.4l3.03,45.98c.1,1.48-1.08,2.74-2.56,2.74Z"/>
    <circle cx="61.24" cy="99.7" r="5.78"/>
    <path d="M69.34,99.56l-1.82-4.98c-.57-1.56.36-3.26,1.98-3.62l19.76-4.4c1.34-.3,2.7.44,3.17,1.74h0c.47,1.29-.09,2.73-1.31,3.37l-17.94,9.38c-1.47.77-3.28.07-3.84-1.49Z"/>
  </g>
  <g>
    <path d="M210.25,56.63c-23.78,0-43.06,19.28-43.06,43.06s19.28,43.06,43.06,43.06,43.06-19.28,43.06-43.06-19.28-43.06-43.06-43.06ZM210.25,131.21c-17.41,0-31.52-14.11-31.52-31.52s14.11-31.52,31.52-31.52,31.52,14.11,31.52,31.52-14.11,31.52-31.52,31.52Z"/>
    <g>
      <g id="_リピートラジアル_" data-name="&amp;lt;リピートラジアル&amp;gt;">
        <path d="M204.72,139.91l11.46-.03c.87,0,1.47.86,1.17,1.67l-3.2,8.74c-.18.49-.64.81-1.16.82l-4.97.02c-.52,0-.99-.32-1.17-.81l-3.29-8.74c-.31-.81.29-1.68,1.16-1.68Z"/>
      </g>
      <g id="_リピートラジアル_-2" data-name="&amp;lt;リピートラジアル&amp;gt;">
        <path d="M185.36,131.76l9.94,5.71c.75.43.84,1.48.18,2.03l-7.14,5.97c-.4.33-.96.38-1.41.13l-4.32-2.47c-.45-.26-.7-.77-.61-1.28l1.52-9.22c.14-.86,1.09-1.31,1.85-.88Z"/>
      </g>
      <g id="_リピートラジアル_-3" data-name="&amp;lt;リピートラジアル&amp;gt;">
        <path d="M172.66,115.02l5.75,9.91c.43.75,0,1.7-.86,1.85l-9.17,1.6c-.51.09-1.03-.15-1.29-.6l-2.51-4.3c-.26-.45-.22-1.01.11-1.42l5.93-7.22c.55-.67,1.6-.59,2.04.17Z"/>
      </g>
      <g id="_リピートラジアル_-4" data-name="&amp;lt;リピートラジアル&amp;gt;">
        <path d="M170.04,94.17l.03,11.46c0,.87-.86,1.47-1.67,1.17l-8.74-3.2c-.49-.18-.81-.64-.82-1.16l-.02-4.97c0-.52.32-.99.81-1.17l8.74-3.29c.81-.31,1.68.29,1.68,1.16Z"/>
      </g>
      <g id="_リピートラジアル_-5" data-name="&amp;lt;リピートラジアル&amp;gt;">
        <path d="M178.19,74.8l-5.71,9.94c-.43.75-1.48.84-2.03.18l-5.97-7.14c-.33-.4-.38-.96-.13-1.41l2.47-4.32c.26-.45.77-.7,1.28-.61l9.22,1.52c.86.14,1.31,1.09.88,1.85Z"/>
      </g>
      <g id="_リピートラジアル_-6" data-name="&amp;lt;リピートラジアル&amp;gt;">
        <path d="M194.93,62.1l-9.91,5.75c-.75.43-1.7,0-1.85-.86l-1.6-9.17c-.09-.51.15-1.03.6-1.29l4.3-2.51c.45-.26,1.01-.22,1.42.11l7.22,5.93c.67.55.59,1.6-.17,2.04Z"/>
      </g>
      <g id="_リピートラジアル_-7" data-name="&amp;lt;リピートラジアル&amp;gt;">
        <path d="M215.78,59.48l-11.46.03c-.87,0-1.47-.86-1.17-1.67l3.2-8.74c.18-.49.64-.81,1.16-.82l4.97-.02c.52,0,.99.32,1.17.81l3.29,8.74c.31.81-.29,1.68-1.16,1.68Z"/>
      </g>
      <g id="_リピートラジアル_-8" data-name="&amp;lt;リピートラジアル&amp;gt;">
        <path d="M235.15,67.63l-9.94-5.71c-.75-.43-.84-1.48-.18-2.03l7.14-5.97c.4-.33.96-.38,1.41-.13l4.32,2.47c.45.26.7.77.61,1.28l-1.52,9.22c-.14.86-1.09,1.31-1.85.88Z"/>
      </g>
      <g id="_リピートラジアル_-9" data-name="&amp;lt;リピートラジアル&amp;gt;">
        <path d="M247.85,84.37l-5.75-9.91c-.43-.75,0-1.7.86-1.85l9.17-1.6c.51-.09,1.03.15,1.29.6l2.51,4.3c.26.45.22,1.01-.11,1.42l-5.93,7.22c-.55.67-1.6.59-2.04-.17Z"/>
      </g>
      <g id="_リピートラジアル_-10" data-name="&amp;lt;リピートラジアル&amp;gt;">
        <path d="M250.47,105.22l-.03-11.46c0-.87.86-1.47,1.67-1.17l8.74,3.2c.49.18.81.64.82,1.16l.02,4.97c0,.52-.32.99-.81,1.17l-8.74,3.29c-.81.31-1.68-.29-1.68-1.16Z"/>
      </g>
      <g id="_リピートラジアル_-11" data-name="&amp;lt;リピートラジアル&amp;gt;">
        <path d="M242.32,124.59l5.71-9.94c.43-.75,1.48-.84,2.03-.18l5.97,7.14c.33.4.38.96.13,1.41l-2.47,4.32c-.26.45-.77.7-1.28.61l-9.22-1.52c-.86-.14-1.31-1.09-.88-1.85Z"/>
      </g>
      <g id="_リピートラジアル_-12" data-name="&amp;lt;リピートラジアル&amp;gt;">
        <path d="M225.57,137.29l9.91-5.75c.75-.43,1.7,0,1.85.86l1.6,9.17c.09.51-.15,1.03-.6,1.29l-4.3,2.51c-.45.26-1.01.22-1.42-.11l-7.22-5.93c-.67-.55-.59-1.6.17-2.04Z"/>
      </g>
    </g>
  </g>
  <g>
    <line class="cls-2" x1="342.42" y1="170.67" x2="410.62" y2="102.48"/>
    <circle cx="410.62" cy="102.48" r="10.63"/>
  </g>
  <g>
    <line class="cls-2" x1="423.75" y1="42.43" x2="374.34" y2="91.84"/>
    <circle class="cls-1" cx="368.19" cy="98.36" r="7.75"/>
  </g>
  <text class="cls-4" transform="translate(1.51 265.07)"><tspan x="0" y="0">DEADLINE-DRIVEN</tspan></text>
  <text class="cls-3" transform="translate(0 339.4)"><tspan x="0" y="0">DEVELOPERS</tspan></text>
</svg>