<?xml version="1.0" encoding="UTF-8"?>
<svg id="_レイヤー_1" data-name="レイヤー 1" xmlns="http://www.w3.org/2000/svg" viewBox="0 0 465.97 341.08">
  <defs>
    <style>
      .cls-1 {
        fill: none;
        stroke: #578FCA;
        stroke-miterlimit: 10;
        stroke-width: 8px;
      }

      .cls-2 {
        fill: #578FCA;
      }
    </style>
  </defs>
  <path class="cls-2" d="M0,6.35C0,2.84,2.84,0,6.35,0h49.19c57.65,0,96.26,43.1,96.26,99.96s-39.67,99.43-96.52,99.43H6.35c-3.51,0-6.35-2.84-6.35-6.35V6.35ZM38.87,159.2c0,3.51,2.84,6.35,6.35,6.35h0c47.86,0,66.38-26.44,66.38-65.85,0-43.37-22.21-65.85-66.38-65.85h0c-3.51,0-6.35,2.84-6.35,6.35v119Z"/>
  <path class="cls-2" d="M157.09,6.35c0-3.51,2.84-6.35,6.35-6.35h49.19c57.65,0,96.26,43.1,96.26,99.96s-39.67,99.43-96.52,99.43h-48.92c-3.51,0-6.35-2.84-6.35-6.35V6.35ZM195.97,159.2c0,3.51,2.84,6.35,6.35,6.35h0c47.86,0,66.38-26.44,66.38-65.85,0-43.37-22.21-65.85-66.38-65.85h0c-3.51,0-6.35,2.84-6.35,6.35v119Z"/>
  <path class="cls-2" d="M314.18,6.35c0-3.51,2.84-6.35,6.35-6.35h49.19c57.65,0,96.26,43.1,96.26,99.96s-39.67,99.43-96.52,99.43h-48.92c-3.51,0-6.35-2.84-6.35-6.35V6.35ZM353.06,159.2c0,3.51,2.84,6.35,6.35,6.35h0c47.86,0,66.38-26.44,66.38-65.85,0-43.37-22.21-65.85-66.38-65.85h0c-3.51,0-6.35,2.84-6.35,6.35v119Z"/>
  <g>
    <path class="cls-2" d="M64.26,92.04h-6.07c-1.48,0-2.66-1.26-2.56-2.74l3.03-45.98c.09-1.35,1.21-2.4,2.56-2.4h0c1.35,0,2.47,1.05,2.56,2.4l3.03,45.98c.1,1.48-1.08,2.74-2.56,2.74Z"/>
    <circle class="cls-2" cx="61.22" cy="99.7" r="5.78"/>
    <path class="cls-2" d="M69.32,99.56l-1.82-4.98c-.57-1.56.36-3.26,1.98-3.62l19.76-4.4c1.34-.3,2.7.44,3.17,1.74h0c.47,1.29-.09,2.73-1.31,3.37l-17.94,9.38c-1.47.77-3.28.07-3.84-1.49Z"/>
  </g>
  <g>
    <path class="cls-2" d="M210.24,56.63c-23.78,0-43.06,19.28-43.06,43.06s19.28,43.06,43.06,43.06,43.06-19.28,43.06-43.06-19.28-43.06-43.06-43.06ZM210.24,131.21c-17.41,0-31.52-14.11-31.52-31.52s14.11-31.52,31.52-31.52,31.52,14.11,31.52,31.52-14.11,31.52-31.52,31.52Z"/>
    <g>
      <g id="_リピートラジアル_" data-name="&amp;lt;リピートラジアル&amp;gt;">
        <path class="cls-2" d="M204.71,139.91l11.46-.03c.87,0,1.47.86,1.17,1.67l-3.2,8.74c-.18.49-.64.81-1.16.82l-4.97.02c-.52,0-.99-.32-1.17-.81l-3.29-8.74c-.31-.81.29-1.68,1.16-1.68Z"/>
      </g>
      <g id="_リピートラジアル_-2" data-name="&amp;lt;リピートラジアル&amp;gt;">
        <path class="cls-2" d="M185.34,131.76l9.94,5.71c.75.43.84,1.48.18,2.03l-7.14,5.97c-.4.33-.96.38-1.41.13l-4.32-2.47c-.45-.26-.7-.77-.61-1.28l1.52-9.22c.14-.86,1.09-1.31,1.85-.88Z"/>
      </g>
      <g id="_リピートラジアル_-3" data-name="&amp;lt;リピートラジアル&amp;gt;">
        <path class="cls-2" d="M172.65,115.02l5.75,9.91c.43.75,0,1.7-.86,1.85l-9.17,1.6c-.51.09-1.03-.15-1.29-.6l-2.51-4.3c-.26-.45-.22-1.01.11-1.42l5.93-7.22c.55-.67,1.6-.59,2.04.17Z"/>
      </g>
      <g id="_リピートラジアル_-4" data-name="&amp;lt;リピートラジアル&amp;gt;">
        <path class="cls-2" d="M170.02,94.17l.03,11.46c0,.87-.86,1.47-1.67,1.17l-8.74-3.2c-.49-.18-.81-.64-.82-1.16l-.02-4.97c0-.52.32-.99.81-1.17l8.74-3.29c.81-.31,1.68.29,1.68,1.16Z"/>
      </g>
      <g id="_リピートラジアル_-5" data-name="&amp;lt;リピートラジアル&amp;gt;">
        <path class="cls-2" d="M178.17,74.8l-5.71,9.94c-.43.75-1.48.84-2.03.18l-5.97-7.14c-.33-.4-.38-.96-.13-1.41l2.47-4.32c.26-.45.77-.7,1.28-.61l9.22,1.52c.86.14,1.31,1.09.88,1.85Z"/>
      </g>
      <g id="_リピートラジアル_-6" data-name="&amp;lt;リピートラジアル&amp;gt;">
        <path class="cls-2" d="M194.92,62.1l-9.91,5.75c-.75.43-1.7,0-1.85-.86l-1.6-9.17c-.09-.51.15-1.03.6-1.29l4.3-2.51c.45-.26,1.01-.22,1.42.11l7.22,5.93c.67.55.59,1.6-.17,2.04Z"/>
      </g>
      <g id="_リピートラジアル_-7" data-name="&amp;lt;リピートラジアル&amp;gt;">
        <path class="cls-2" d="M215.77,59.48l-11.46.03c-.87,0-1.47-.86-1.17-1.67l3.2-8.74c.18-.49.64-.81,1.16-.82l4.97-.02c.52,0,.99.32,1.17.81l3.29,8.74c.31.81-.29,1.68-1.16,1.68Z"/>
      </g>
      <g id="_リピートラジアル_-8" data-name="&amp;lt;リピートラジアル&amp;gt;">
        <path class="cls-2" d="M235.13,67.63l-9.94-5.71c-.75-.43-.84-1.48-.18-2.03l7.14-5.97c.4-.33.96-.38,1.41-.13l4.32,2.47c.45.26.7.77.61,1.28l-1.52,9.22c-.14.86-1.09,1.31-1.85.88Z"/>
      </g>
      <g id="_リピートラジアル_-9" data-name="&amp;lt;リピートラジアル&amp;gt;">
        <path class="cls-2" d="M247.83,84.37l-5.75-9.91c-.43-.75,0-1.7.86-1.85l9.17-1.6c.51-.09,1.03.15,1.29.6l2.51,4.3c.26.45.22,1.01-.11,1.42l-5.93,7.22c-.55.67-1.6.59-2.04-.17Z"/>
      </g>
      <g id="_リピートラジアル_-10" data-name="&amp;lt;リピートラジアル&amp;gt;">
        <path class="cls-2" d="M250.46,105.22l-.03-11.46c0-.87.86-1.47,1.67-1.17l8.74,3.2c.49.18.81.64.82,1.16l.02,4.97c0,.52-.32.99-.81,1.17l-8.74,3.29c-.81.31-1.68-.29-1.68-1.16Z"/>
      </g>
      <g id="_リピートラジアル_-11" data-name="&amp;lt;リピートラジアル&amp;gt;">
        <path class="cls-2" d="M242.3,124.59l5.71-9.94c.43-.75,1.48-.84,2.03-.18l5.97,7.14c.33.4.38.96.13,1.41l-2.47,4.32c-.26.45-.77.7-1.28.61l-9.22-1.52c-.86-.14-1.31-1.09-.88-1.85Z"/>
      </g>
      <g id="_リピートラジアル_-12" data-name="&amp;lt;リピートラジアル&amp;gt;">
        <path class="cls-2" d="M225.56,137.29l9.91-5.75c.75-.43,1.7,0,1.85.86l1.6,9.17c.09.51-.15,1.03-.6,1.29l-4.3,2.51c-.45.26-1.01.22-1.42-.11l-7.22-5.93c-.67-.55-.59-1.6.17-2.04Z"/>
      </g>
    </g>
  </g>
  <g>
    <line class="cls-1" x1="342.4" y1="170.67" x2="410.6" y2="102.48"/>
    <circle class="cls-2" cx="410.6" cy="102.48" r="10.63"/>
  </g>
  <g>
    <line class="cls-1" x1="423.73" y1="42.43" x2="374.32" y2="91.84"/>
    <path class="cls-2" d="M368.18,91.48c3.79,0,6.88,3.09,6.88,6.88s-3.09,6.88-6.88,6.88-6.88-3.09-6.88-6.88,3.09-6.88,6.88-6.88M368.18,87.48c-6.01,0-10.88,4.87-10.88,10.88s4.87,10.88,10.88,10.88,10.88-4.87,10.88-10.88-4.87-10.88-10.88-10.88h0Z"/>
  </g>
  <g>
    <path class="cls-2" d="M4.62,221.48h12.14c12.6,0,21.04,9.42,21.04,21.85s-8.67,21.74-21.1,21.74H4.62v-43.59ZM13.12,257.67h1.39c10.46,0,14.51-5.78,14.51-14.4,0-9.48-4.86-14.4-14.51-14.4h-1.39v28.79Z"/>
    <path class="cls-2" d="M50.47,228.88v9.6h13.53v7.4h-13.53v11.79h14.05v7.4h-22.55v-43.59h22.55v7.4h-14.05Z"/>
    <path class="cls-2" d="M79.09,255.88l-3.58,9.19h-8.96l17-44.75h6.59l16.54,44.75h-9.08l-3.35-9.19h-15.15ZM86.44,233.1h-.12l-4.8,15.84h10.35l-5.43-15.84Z"/>
    <path class="cls-2" d="M109.28,221.48h12.14c12.6,0,21.04,9.42,21.04,21.85s-8.67,21.74-21.1,21.74h-12.08v-43.59ZM117.78,257.67h1.39c10.46,0,14.51-5.78,14.51-14.4,0-9.48-4.86-14.4-14.51-14.4h-1.39v28.79Z"/>
    <path class="cls-2" d="M155.13,257.67h12.03v7.4h-20.52v-43.59h8.5v36.19Z"/>
    <path class="cls-2" d="M178.37,265.07h-8.5v-43.59h8.5v43.59Z"/>
    <path class="cls-2" d="M184.56,220.32h6.13l22.95,30.47h.12v-29.31h8.5v44.46h-6.13l-22.95-30.47h-.12v29.6h-8.5v-44.75Z"/>
    <path class="cls-2" d="M236.95,228.88v9.6h13.53v7.4h-13.53v11.79h14.05v7.4h-22.55v-43.59h22.55v7.4h-14.05Z"/>
    <path class="cls-2" d="M270.13,243.22v6.65h-14.11v-6.65h14.11Z"/>
    <path class="cls-2" d="M275.74,221.48h12.14c12.6,0,21.04,9.42,21.04,21.85s-8.67,21.74-21.1,21.74h-12.08v-43.59ZM284.24,257.67h1.39c10.46,0,14.51-5.78,14.51-14.4,0-9.48-4.86-14.4-14.51-14.4h-1.39v28.79Z"/>
    <path class="cls-2" d="M342.58,265.07h-10.29l-10.58-17.58h-.12v17.58h-8.5v-43.59h11.5c8.62,0,14.57,3.82,14.57,13.12,0,5.55-3.06,11.1-8.9,12.08l12.32,18.39ZM321.6,241.54h1.1c4.68,0,7.98-1.39,7.98-6.71s-3.41-6.42-7.92-6.42h-1.16v13.12Z"/>
    <path class="cls-2" d="M353.86,265.07h-8.5v-43.59h8.5v43.59Z"/>
    <path class="cls-2" d="M375.72,250.85h.12l9.71-29.37h9.13l-16.94,44.75h-4.97l-16.65-44.75h9.13l10.46,29.37Z"/>
    <path class="cls-2" d="M405.49,228.88v9.6h13.53v7.4h-13.53v11.79h14.05v7.4h-22.55v-43.59h22.55v7.4h-14.05Z"/>
    <path class="cls-2" d="M425.21,220.32h6.13l22.95,30.47h.12v-29.31h8.5v44.46h-6.13l-22.95-30.47h-.12v29.6h-8.5v-44.75Z"/>
  </g>
  <g>
    <path class="cls-2" d="M4.52,276.04h17.65c18.32,0,30.59,13.7,30.59,31.76s-12.6,31.6-30.67,31.6H4.52v-63.36ZM16.88,328.64h2.02c15.21,0,21.09-8.4,21.09-20.92,0-13.78-7.06-20.92-21.09-20.92h-2.02v41.85Z"/>
    <path class="cls-2" d="M71.16,286.8v13.95h19.66v10.76h-19.66v17.14h20.42v10.76h-32.77v-63.36h32.77v10.76h-20.42Z"/>
    <path class="cls-2" d="M122.59,318.73h.17l14.12-42.69h13.28l-24.62,65.04h-7.23l-24.2-65.04h13.28l15.21,42.69Z"/>
    <path class="cls-2" d="M165.87,286.8v13.95h19.66v10.76h-19.66v17.14h20.42v10.76h-32.77v-63.36h32.77v10.76h-20.42Z"/>
    <path class="cls-2" d="M206.88,328.64h17.48v10.76h-29.83v-63.36h12.35v52.6Z"/>
    <path class="cls-2" d="M256.63,341.08c-19.33,0-31.34-14.79-31.34-33.44s12.44-33.28,31.34-33.28,31.34,14.45,31.34,33.28-12.02,33.44-31.34,33.44ZM256.63,286.55c-11.68,0-18.57,10.33-18.57,20.59s4.87,21.76,18.57,21.76,18.57-12.02,18.57-21.76c0-10.25-6.89-20.59-18.57-20.59Z"/>
    <path class="cls-2" d="M306.38,339.4h-12.35v-63.36h16.81c13.28,0,21.93,5.29,21.93,19.66,0,13.44-7.31,20-20.25,20h-6.13v23.7ZM306.38,305.45h2.52c7.31,0,11.26-1.6,11.26-9.83s-4.71-9.33-11.6-9.33h-2.19v19.16Z"/>
    <path class="cls-2" d="M350.75,286.8v13.95h19.66v10.76h-19.66v17.14h20.42v10.76h-32.77v-63.36h32.77v10.76h-20.42Z"/>
    <path class="cls-2" d="M422.26,339.4h-14.96l-15.38-25.54h-.17v25.54h-12.35v-63.36h16.72c12.52,0,21.18,5.55,21.18,19.07,0,8.07-4.45,16.13-12.94,17.56l17.9,26.72ZM391.76,305.2h1.6c6.81,0,11.6-2.02,11.6-9.75s-4.96-9.33-11.51-9.33h-1.68v19.08Z"/>
    <path class="cls-2" d="M456.13,289.99c-2.35-3.19-5.38-5.21-9.5-5.21s-7.73,3.02-7.73,7.14c0,10.67,25.12,6.22,25.12,27.48,0,12.69-7.9,21.68-20.84,21.68-8.74,0-15.12-5.04-19.5-12.35l7.98-7.81c1.68,4.87,6.13,9.24,11.43,9.24s8.15-4.29,8.15-9.16c0-6.55-6.05-8.4-11.01-10.34-8.15-3.36-14.12-7.48-14.12-17.31,0-10.5,7.82-18.99,18.49-18.99,5.63,0,13.44,2.77,17.31,7.06l-5.8,8.57Z"/>
  </g>
</svg>